<?xml version="1.0" standalone="no"?><!DOCTYPE svg PUBLIC "-//W3C//DTD SVG 1.1//EN" "http://www.w3.org/Graphics/SVG/1.1/DTD/svg11.dtd"><svg id="close" t="1702349948921" class="icon" viewBox="0 0 1024 1024" version="1.1" xmlns="http://www.w3.org/2000/svg" p-id="4502" xmlns:xlink="http://www.w3.org/1999/xlink" width="200" height="200"><path d="M512 864a352 352 0 1 1 0-704 352 352 0 0 1 0 704z m0-397.226667L416.810667 371.541333a16 16 0 0 0-22.613334 0l-22.613333 22.613334a16 16 0 0 0 0 22.613333L466.688 512l-95.146667 95.189333a16 16 0 0 0 0 22.613334l22.613334 22.613333a16 16 0 0 0 22.613333 0L512 557.312l95.189333 95.146667a16 16 0 0 0 22.613334 0l22.613333-22.613334a16 16 0 0 0 0-22.613333l-95.146667-95.146667 95.146667-95.232a16 16 0 0 0 0-22.613333l-22.613333-22.613333a16 16 0 0 0-22.613334 0L512 466.688z" fill="#409EFF" p-id="4503"></path></svg>